<?xml version="1.0" encoding="UTF-8" standalone="no"?>
<svg xmlns:dc="http://purl.org/dc/elements/1.1/" 
   xmlns:cc="http://creativecommons.org/ns#" 
   xmlns:rdf="http://www.w3.org/1999/02/22-rdf-syntax-ns#" 
   xmlns:svg="http://www.w3.org/2000/svg" 
   xmlns="http://www.w3.org/2000/svg" 
   xmlns:sodipodi="http://sodipodi.sourceforge.net/DTD/sodipodi-0.dtd" 
   xmlns:inkscape="http://www.inkscape.org/namespaces/inkscape" sodipodi:docname="edsc-logo.svg" inkscape:version="1.0 (4035a4f, 2020-05-01)" id="svg8" version="1.1" viewBox="0 0 210 297" height="100%" width="100%">
   <defs id="defs2" />
   <sodipodi:namedview inkscape:window-maximized="1" inkscape:window-y="23" inkscape:window-x="25" inkscape:window-height="1395" inkscape:window-width="2535" inkscape:snap-text-baseline="true" showgrid="false" inkscape:document-rotation="0" inkscape:current-layer="layer1" inkscape:document-units="mm" inkscape:cy="221.21176" inkscape:cx="282.30653" inkscape:zoom="1.5878883" inkscape:pageshadow="2" inkscape:pageopacity="0.0" borderopacity="1.0" bordercolor="#666666" pagecolor="#ffffff" id="base" />
   <metadata id="metadata5">
      <rdf:RDF>
         <cc:Work rdf:about="">
            <dc:format>image/svg+xml</dc:format>
            <dc:type rdf:resource="http://purl.org/dc/dcmitype/StillImage" />
            <dc:title></dc:title>
         </cc:Work>
      </rdf:RDF>
   </metadata>
   <g id="layer1" inkscape:groupmode="layer" inkscape:label="Layer 1">
      <g id="g86">
         <path d="m 47.535131,15.906799 v 9.762341 c 0,0.485945 -0.417976,1.287182 -0.903923,1.771685 l -9.943126,9.943123 c -0.242975,0.242975 -0.491733,0.361572 -0.650822,0.361572 -0.159091,0 -0.2531,-0.118597 -0.2531,-0.361572 v 1.084707 c 0,0.485947 0.417975,0.903923 0.903922,0.903923 h 21.657937 c 0.485947,0 0.90392,-0.417976 0.90392,-0.903923 V 16.774561 c 0,-0.48595 -0.417973,-0.867762 -0.90392,-0.867762 z M 33.75938,38.468655 c 0,0.485947 -0.41942,0.903923 -0.90392,0.903923 H 22.044567 v 11.787121 c 0,0.242972 0.09545,0.361569 0.253098,0.361569 0.157646,0 0.371694,-0.118597 0.614667,-0.361569 l 9.943128,-9.943126 c 0.4845,-0.485947 0.90392,-1.285738 0.90392,-1.771685 z" id="path84" style="fill:#7d8990;fill-opacity:1;fill-rule:nonzero;stroke:none;stroke-width:0.264583" />
         <path d="m 47.28203,3.6134767 c -0.159818,0 -0.407847,0.1185942 -0.650822,0.361569 L 36.688082,13.95433 c -0.4845,0.484502 -0.903922,1.249579 -0.903922,1.735529 v 1.084702 20.609387 c 0,0.48595 0.419422,0.48595 0.903922,0 l 9.943126,-9.943123 c 0.485947,-0.485947 0.903923,-1.28574 0.903923,-1.771685 V 15.906799 3.9750457 c 0,-0.2429748 -0.09326,-0.361569 -0.253101,-0.361569 z M 11.197521,15.906799 c -0.485947,0 -0.90392,0.381812 -0.90392,0.867762 v 21.694094 c 0,0.485947 0.417973,0.903923 0.90392,0.903923 H 32.85546 c 0.485947,0 0.90392,-0.417976 0.90392,-0.903923 V 16.774561 c 0,-0.48595 -0.417973,-0.867762 -0.90392,-0.867762 z" id="path88" style="fill:#e2001a;fill-opacity:1;fill-rule:nonzero;stroke:none;stroke-width:0.264583" />
         <path d="m 36.688082,15.906799 c -0.485947,0 -0.903922,0.417973 -0.903922,0.90392 v 20.573229 c 0,0.242975 0.09407,0.361572 0.2531,0.361572 0.159089,0 0.407847,-0.118597 0.650822,-0.361572 l 9.943126,-9.943123 c 0.485947,-0.485947 0.903923,-1.287182 0.903923,-1.771685 v -9.762341 z m -3.1818,1.482428 c -0.160535,0 -0.407849,0.120042 -0.650822,0.361567 l -9.943128,9.979284 c -0.4845,0.494625 -0.867765,1.251027 -0.867765,1.735526 v 9.906974 H 32.85546 c 0.485947,0 0.90392,-0.417976 0.90392,-0.903923 V 17.750794 c 0,-0.241525 -0.09407,-0.361567 -0.253098,-0.361567 z" id="path100" style="fill:#8e1016;fill-opacity:1;fill-rule:nonzero;stroke:none;stroke-width:0.264583" />
         <path d="m 114.20831,15.942954 c -0.16632,0 -0.31818,0.03899 -0.43388,0.144627 -0.1186,0.107024 -0.18078,0.232851 -0.18078,0.397727 v 22.272603 c 0,0.163428 0.0621,0.315286 0.18078,0.43388 0.1157,0.11281 0.26756,0.180787 0.43388,0.180787 h 5.35121 c 1.09772,0 2.16218,-0.166323 3.14564,-0.470043 0.98347,-0.308054 1.82954,-0.731811 2.56714,-1.301644 0.73904,-0.577062 1.31466,-1.288629 1.73552,-2.133251 0.42087,-0.843177 0.65083,-1.803506 0.65083,-2.856391 0,-0.727475 -0.12583,-1.417347 -0.39773,-2.060938 -0.269,-0.645038 -0.62913,-1.209082 -1.0847,-1.699373 -0.45847,-0.493176 -0.99359,-0.876438 -1.5909,-1.193173 -0.59587,-0.316733 -1.22789,-0.533673 -1.88016,-0.650822 0.4686,-0.14029 0.94008,-0.370245 1.44628,-0.686983 0.50475,-0.315286 0.9878,-0.699995 1.41011,-1.157015 0.42231,-0.457025 0.76797,-0.98202 1.04855,-1.554745 0.28202,-0.574172 0.43388,-1.177263 0.43388,-1.807842 0,-1.008049 -0.18946,-1.868583 -0.57851,-2.603288 -0.38904,-0.739048 -0.90681,-1.363837 -1.55474,-1.843998 -0.64504,-0.478716 -1.38698,-0.850408 -2.24173,-1.084707 -0.85619,-0.232849 -1.75866,-0.325411 -2.6756,-0.325411 z m 16.23441,0 c -0.16343,0 -0.2907,0.04049 -0.39772,0.144627 -0.10275,0.105637 -0.12004,0.234296 -0.0723,0.397727 l 4.48345,22.272603 c 0.0477,0.160536 0.16054,0.315286 0.28926,0.43388 0.12871,0.114199 0.2719,0.180787 0.43388,0.180787 h 1.77168 c 0.16488,0 0.30517,-0.06653 0.43388,-0.180787 0.12583,-0.118594 0.20538,-0.273344 0.2531,-0.43388 l 3.83263,-19.633157 3.86877,19.633157 c 0.0463,0.160536 0.12438,0.315286 0.2531,0.43388 0.12872,0.114199 0.2719,0.180787 0.43388,0.180787 h 1.77169 c 0.16632,0 0.31529,-0.06653 0.43388,-0.180787 0.11859,-0.118594 0.20537,-0.273344 0.2531,-0.43388 l 4.48344,-22.272603 c 0.0492,-0.163431 0.0202,-0.292148 -0.0723,-0.397727 -0.097,-0.104132 -0.19959,-0.144627 -0.36157,-0.144627 h -1.41011 c -0.35145,0 -0.59442,0.16777 -0.68698,0.542354 l -3.47106,19.669309 -3.86878,-19.669309 c -0.0941,-0.374584 -0.29504,-0.542354 -0.65082,-0.542354 h -1.77169 c -0.37313,0 -0.59586,0.16777 -0.68698,0.542354 l -3.83262,19.669309 -3.50721,-19.669309 c -0.0954,-0.374584 -0.35,-0.542354 -0.72314,-0.542354 z m -14.28194,2.06094 h 3.83262 c 1.31611,0 2.39358,0.347104 3.21796,1.048547 0.82003,0.701442 1.22933,1.661765 1.22933,2.856388 0,0.608883 -0.14174,1.149789 -0.39773,1.663213 -0.26032,0.514874 -0.58863,0.966111 -1.01238,1.337805 -0.42087,0.376031 -0.90826,0.656606 -1.44628,0.867765 -0.5409,0.2126 -1.11508,0.325408 -1.69937,0.325408 h -3.72415 z m 0,10.123911 h 3.83262 c 1.47954,0 2.68573,0.407847 3.61568,1.193175 0.92417,0.783879 1.37397,1.822302 1.37397,3.1818 0,0.704334 -0.10125,1.365282 -0.36158,1.952469 -0.25888,0.584293 -0.62623,1.097719 -1.0847,1.518584 -0.45702,0.422315 -0.98058,0.741939 -1.5909,0.976233 -0.61033,0.237191 -1.27272,0.361572 -1.95247,0.361572 h -3.83262 z" id="path238" style="fill:#5d6971;fill-opacity:1;fill-rule:nonzero;stroke:none;stroke-width:0.264583" sodipodi:nodetypes="scsscsscccscccccscscccsssccccsscccccssccccsscccsscccsscscscccscccscscccscc" />
         <path d="m 71.760198,15.942954 c -0.257434,0 -0.461359,0.05056 -0.614664,0.216942 -0.151858,0.161981 -0.21694,0.391941 -0.21694,0.650823 v 21.694094 c 0,0.257435 0.06502,0.449789 0.21694,0.614664 0.150413,0.161984 0.35723,0.253101 0.614664,0.253101 h 5.893565 c 1.616932,0 3.061758,-0.293595 4.374975,-0.903923 1.316109,-0.607433 2.449983,-1.478089 3.362584,-2.567135 0.914046,-1.090488 1.628503,-2.368995 2.133254,-3.868777 0.503303,-1.498341 0.723135,-3.123954 0.723135,-4.881174 0,-1.684909 -0.241528,-3.223741 -0.759293,-4.591918 -0.514874,-1.371063 -1.242349,-2.558454 -2.169409,-3.543366 -0.924169,-0.984914 -2.047923,-1.739868 -3.362587,-2.27788 -1.311767,-0.539461 -2.745026,-0.795451 -4.338817,-0.795451 z m 21.332528,0 c -0.255989,0 -0.461364,0.05056 -0.614666,0.216942 -0.150413,0.161981 -0.253098,0.391941 -0.253098,0.650823 v 21.694094 c 0,0.257435 0.102743,0.449789 0.253098,0.614664 0.153302,0.161984 0.358677,0.253101 0.614666,0.253101 h 2.422507 c 0.25599,0 0.454128,-0.08967 0.614667,-0.253101 0.163425,-0.163427 0.253097,-0.357229 0.253097,-0.614664 v -9.653875 h 8.099133 v 9.653875 c 0,0.257435 0.10274,0.451237 0.25309,0.614664 0.15041,0.163428 0.32108,0.253101 0.57851,0.253101 h 2.42251 c 0.25888,0 0.48739,-0.09118 0.65082,-0.253101 0.16343,-0.164875 0.2531,-0.357229 0.2531,-0.614664 V 16.810719 c 0,-0.258882 -0.0897,-0.488842 -0.2531,-0.650823 -0.16343,-0.166322 -0.39194,-0.216942 -0.65082,-0.216942 h -2.42251 c -0.25743,0 -0.4281,0.05056 -0.57851,0.216942 -0.15041,0.161981 -0.25309,0.391941 -0.25309,0.650823 v 8.605321 h -8.099133 v -8.605321 c 0,-0.258882 -0.08967,-0.488842 -0.253097,-0.650823 -0.160539,-0.166322 -0.358677,-0.216942 -0.614667,-0.216942 z M 75.050469,19.19707 h 2.639449 c 0.986359,0 1.864246,0.205369 2.639451,0.614664 0.773753,0.412186 1.43904,0.960324 1.988625,1.663213 0.551026,0.702889 0.982017,1.557636 1.265486,2.530978 0.280577,0.973341 0.397727,2.020445 0.397727,3.145644 0,1.313217 -0.127273,2.486144 -0.433882,3.579527 -0.305166,1.087593 -0.763633,2.058043 -1.337803,2.856388 -0.575619,0.796896 -1.262597,1.398546 -2.06094,1.843995 -0.799787,0.445453 -1.69214,0.686983 -2.675607,0.686983 h -2.422506 z" id="path242" style="fill:#e2001a;fill-opacity:1;fill-rule:nonzero;stroke:none;stroke-width:0.264583" />
      </g>
      <text id="text90" y="51.320782" x="69.816254" style="font-style:normal;font-variant:normal;font-weight:bold;font-stretch:normal;font-size:7.76111px;line-height:1.25;font-family:sans-serif;-inkscape-font-specification:'sans-serif, Bold';font-variant-ligatures:normal;font-variant-caps:normal;font-variant-numeric:normal;font-variant-east-asian:normal;fill:#5d6971;fill-opacity:1;stroke:none;stroke-width:0.264583" xml:space="preserve">
         <tspan id="tspan92" style="font-style:normal;font-variant:normal;font-weight:bold;font-stretch:normal;font-size:7.76111px;font-family:sans-serif;-inkscape-font-specification:'sans-serif, Bold';font-variant-ligatures:normal;font-variant-caps:normal;font-variant-numeric:normal;font-variant-east-asian:normal;fill:#5d6971;fill-opacity:1;stroke-width:0.264583" y="51.320782" x="69.816254" sodipodi:role="line">Enterprise Data</tspan>
         <tspan id="tspan96" style="font-style:normal;font-variant:normal;font-weight:bold;font-stretch:normal;font-size:7.76111px;font-family:sans-serif;-inkscape-font-specification:'sans-serif, Bold';font-variant-ligatures:normal;font-variant-caps:normal;font-variant-numeric:normal;font-variant-east-asian:normal;fill:#5d6971;fill-opacity:1;stroke-width:0.264583" y="61.022167" x="69.816254" sodipodi:role="line">ScienceCenter</tspan>
         <tspan id="tspan925" style="font-style:normal;font-variant:normal;font-weight:bold;font-stretch:normal;font-size:7.76111px;font-family:sans-serif;-inkscape-font-specification:'sans-serif, Bold';font-variant-ligatures:normal;font-variant-caps:normal;font-variant-numeric:normal;font-variant-east-asian:normal;fill:#5d6971;fill-opacity:1;stroke-width:0.264583" y="70.723557" x="69.816254" sodipodi:role="line">(EDSC)</tspan>
      </text>
   </g>
</svg>
